<svg xmlns="http://www.w3.org/2000/svg" width="198.09" height="46.36" viewBox="0 0 198.09 46.36">
  <title>remington_logo</title>
  <g>
    <polygon points="192.63 46.36 181.25 46.36 181.25 0 192.63 0 192.63 46.36 192.63 46.36" style="fill: #e22b26"/>
    <path d="M197.13,10.21V9.7h.34c.18,0,.4,0,.4.24s-.21.27-.42.27Zm1.05-.26c0-.36-.23-.51-.67-.51h-.69v1.78h.31v-.76h.26l.45.76h.37l-.49-.76a.5.5,0,0,0,.46-.51Zm-.69,1.6a1.22,1.22,0,1,1,1.17-1.22,1.2,1.2,0,0,1-1.17,1.22Zm0-2.78A1.56,1.56,0,1,0,199,10.33a1.56,1.56,0,0,0-1.55-1.56Z" transform="translate(-0.96 -3.49)" style="fill: #1d1c1a"/>
  </g>
  <g>
    <polygon points="93.48 5.64 93.48 20.07 80.05 5.64 77.53 5.64 77.53 24.36 78.99 24.36 78.99 9.36 92.96 24.36 94.93 24.36 94.93 5.64 93.48 5.64 93.48 5.64" style="fill: #1d1c1a"/>
    <polygon points="70.43 24.36 73.75 24.36 73.75 5.64 70.43 5.64 70.43 24.36 70.43 24.36" style="fill: #1d1c1a"/>
    <polygon points="24.99 24.36 24.99 5.61 38.81 5.61 38.81 7.14 28.27 6.94 28.27 13.79 36.48 13.79 36.48 14.92 28.27 14.92 28.27 23.03 39.2 22.88 39.2 24.36 24.99 24.36 24.99 24.36" style="fill: #1d1c1a"/>
    <polygon points="45.07 5.58 54.59 21.72 63.05 5.59 66.49 5.59 66.49 24.36 63.04 24.36 63.03 8.44 54.69 24.36 52.29 24.36 43.4 9.58 43.43 24.36 41.97 24.36 41.97 5.59 45.07 5.58 45.07 5.58" style="fill: #1d1c1a"/>
  </g>
  <path d="M4.83,6.14H8.3c2.39,0,11.26-.09,11.26,5.31,0,4.9-6.15,5.77-8.92,5.77H4.83V6.14ZM24.44,27.85,14,18.22c.41,0,.84,0,1.23-.1,2.4-.32,7.22-1.64,7.54-6.61C22.86,5,12.51,5,10.29,5H1V27.88H4.83V18.35h5l10.56,9.5Z" transform="translate(-0.96 -3.49)" style="fill: #1d1c1a"/>
  <g>
    <path d="M144.35,27.09c-5.46,0-7.95-3.83-7.95-8.54S139.57,10,144.35,10s8,3.82,8,8.54-2.49,8.54-8,8.54Zm0-18.31c-6.63,0-11,4.35-11,9.72s3.45,9.71,11,9.71,11-4.35,11-9.71-4.38-9.72-11-9.72Z" transform="translate(-0.96 -3.49)" style="fill: #1d1c1a"/>
    <polygon points="172.48 5.64 172.48 20.07 159.04 5.64 156.53 5.64 156.53 24.36 157.98 24.36 157.98 9.36 171.96 24.36 173.93 24.36 173.93 5.64 172.48 5.64 172.48 5.64" style="fill: #1d1c1a"/>
    <polygon points="133.92 5.64 115.27 5.64 115.27 7.15 122.93 7.04 122.93 24.36 126.25 24.36 126.25 7.04 133.92 7.15 133.92 5.64 133.92 5.64" style="fill: #1d1c1a"/>
    <path d="M114.14,9.18a22.9,22.9,0,0,0-4.52-.43c-7.21,0-11.51,4.4-11.51,9.76s3.44,9.72,11,9.72A11.94,11.94,0,0,0,117,25.77V18.85h-4.77l1.51,1.36v5.61a8.09,8.09,0,0,1-4.66,1.28c-5.46,0-8-3.82-8-8.53S104.4,10,109.62,10a12.75,12.75,0,0,1,4.52.68V9.18Z" transform="translate(-0.96 -3.49)" style="fill: #1d1c1a"/>
    <g>
      <path d="M9.09,36.28h5.85v1.24H10.47v2h4v1.24h-4v2.11H15v1.24H9.09Z" transform="translate(-0.96 -3.49)" style="fill: #1d1c1a"/>
      <path d="M18.61,43l.84-1a3.62,3.62,0,0,0,2.49,1c.85,0,1.39-.41,1.39-1v0c0-.56-.31-.86-1.78-1.2-1.68-.41-2.62-.9-2.62-2.36v0a2.41,2.41,0,0,1,2.69-2.29,4.33,4.33,0,0,1,2.86,1l-.74,1a3.58,3.58,0,0,0-2.14-.81c-.81,0-1.29.42-1.29.94v0c0,.61.36.88,1.88,1.24s2.53,1,2.53,2.31v0c0,1.48-1.16,2.36-2.82,2.36A4.86,4.86,0,0,1,18.61,43Z" transform="translate(-0.96 -3.49)" style="fill: #1d1c1a"/>
      <path d="M30.63,37.56h-2.5V36.28h6.39v1.28H32v6.6H30.63Z" transform="translate(-0.96 -3.49)" style="fill: #1d1c1a"/>
      <path d="M34.62,42.61h1.5v1.55h-1.5Z" transform="translate(-0.96 -3.49)" style="fill: #1d1c1a"/>
      <path d="M45.79,36.28h1.28l4.23,5.45V36.28h1.36v7.88H51.5l-4.35-5.61v5.61H45.79Z" transform="translate(-0.96 -3.49)" style="fill: #1d1c1a"/>
      <path d="M57.19,36.28H63v1.24H58.58v2h4v1.24h-4v2.11H63.1v1.24H57.19Z" transform="translate(-0.96 -3.49)" style="fill: #1d1c1a"/>
      <path d="M66.64,36.28h1.5L70,42.12,72,36.25h1.17l1.94,5.87L77,36.28H78.4l-2.74,7.94h-1.2l-1.94-5.67-1.94,5.67H69.39Z" transform="translate(-0.96 -3.49)" style="fill: #1d1c1a"/>
      <path d="M90.53,41.05,87.4,36.28h1.65l2.19,3.48,2.23-3.48h1.59L91.93,41v3.14h-1.4Z" transform="translate(-0.96 -3.49)" style="fill: #1d1c1a"/>
      <path d="M97.76,40.24v0a4.12,4.12,0,0,1,8.24,0v0a4.12,4.12,0,0,1-8.24,0Zm6.79,0v0a2.7,2.7,0,0,0-2.68-2.8,2.66,2.66,0,0,0-2.66,2.78v0A2.69,2.69,0,0,0,101.89,43,2.65,2.65,0,0,0,104.55,40.24Z" transform="translate(-0.96 -3.49)" style="fill: #1d1c1a"/>
      <path d="M110.19,36.28h3.51a3.16,3.16,0,0,1,2.28.79,2.35,2.35,0,0,1,.65,1.7v0a2.37,2.37,0,0,1-1.87,2.39l2.13,3h-1.64l-1.94-2.75h-1.74v2.75h-1.38Zm3.41,3.91c1,0,1.62-.52,1.62-1.32v0c0-.85-.6-1.31-1.63-1.31h-2v2.65Z" transform="translate(-0.96 -3.49)" style="fill: #1d1c1a"/>
      <path d="M120.84,36.28h1.39v4l3.75-4h1.71l-3.29,3.39,3.44,4.49h-1.69l-2.7-3.55-1.22,1.27v2.28h-1.39Z" transform="translate(-0.96 -3.49)" style="fill: #1d1c1a"/>
      <path d="M138.4,37.63,137,38l-.29-1.12,2.13-.68h1v7.94H138.4Z" transform="translate(-0.96 -3.49)" style="fill: #1d1c1a"/>
      <path d="M148.68,40.55a2.3,2.3,0,0,1-1.86.84,2.5,2.5,0,0,1-2.79-2.5v0A2.75,2.75,0,0,1,147,36.14a2.83,2.83,0,0,1,2.19.84,4,4,0,0,1,1,3v0c0,2.53-1.25,4.29-3.38,4.29a3.74,3.74,0,0,1-2.52-.95l.75-1.06a2.68,2.68,0,0,0,1.8.75C148.16,43,148.67,41.59,148.68,40.55Zm-.06-1.74v0A1.49,1.49,0,0,0,147,37.34a1.45,1.45,0,0,0-1.57,1.46v0A1.44,1.44,0,0,0,147,40.23,1.46,1.46,0,0,0,148.62,38.81Z" transform="translate(-0.96 -3.49)" style="fill: #1d1c1a"/>
      <path d="M153.63,42.91l1-.9a2.55,2.55,0,0,0,2.07,1,1.24,1.24,0,0,0,1.36-1.2v0c0-.78-.71-1.22-1.81-1.22h-.64l-.23-.86,2.13-2.27h-3.41v-1.2h5.21v1l-2.19,2.26c1.19.14,2.32.75,2.32,2.2v0a2.53,2.53,0,0,1-2.76,2.5A3.73,3.73,0,0,1,153.63,42.91Z" transform="translate(-0.96 -3.49)" style="fill: #1d1c1a"/>
      <path d="M167.1,37.49h-4V36.28h5.54v1l-3.55,6.83h-1.56Z" transform="translate(-0.96 -3.49)" style="fill: #1d1c1a"/>
    </g>
  </g>
</svg>
