<?xml version="1.0" encoding="utf-8"?>
<!-- Generator: Adobe Illustrator 22.1.0, SVG Export Plug-In . SVG Version: 6.00 Build 0)  -->
<svg version="1.1" id="Layer_1" xmlns="http://www.w3.org/2000/svg" xmlns:xlink="http://www.w3.org/1999/xlink" x="0px" y="0px"
	 viewBox="0 0 198.1 46.4" style="enable-background:new 0 0 198.1 46.4;" xml:space="preserve">
<style type="text/css">
	.st0{fill:#FFFFFF;}
</style>
<title>remington_logo</title>
<g>
	<polygon class="st0" points="192.6,46.4 181.3,46.4 181.3,0 192.6,0 192.6,46.4 	"/>
	<path class="st0" d="M196.2,6.7V6.2h0.3c0.2,0,0.4,0,0.4,0.2s-0.2,0.3-0.4,0.3H196.2z M197.2,6.5c0-0.4-0.2-0.5-0.7-0.5h-0.7v1.8
		h0.3V7h0.3l0.4,0.8h0.4L196.8,7C197,6.9,197.2,6.7,197.2,6.5L197.2,6.5z M196.5,8.1c-0.7,0-1.2-0.5-1.3-1.2c0-0.7,0.5-1.2,1.2-1.3
		c0.7,0,1.2,0.5,1.3,1.2c0,0,0,0,0,0C197.7,7.5,197.2,8,196.5,8.1z M196.5,5.3c-0.9,0-1.6,0.6-1.6,1.5c0,0.9,0.6,1.6,1.5,1.6
		c0.9,0,1.6-0.6,1.6-1.5c0,0,0,0,0,0C198,6,197.3,5.3,196.5,5.3L196.5,5.3z"/>
</g>
<g>
	<polygon class="st0" points="93.5,5.6 93.5,20.1 80.1,5.6 77.5,5.6 77.5,24.4 79,24.4 79,9.4 93,24.4 94.9,24.4 94.9,5.6 93.5,5.6 
			"/>
	<polygon class="st0" points="70.4,24.4 73.8,24.4 73.8,5.6 70.4,5.6 70.4,24.4 	"/>
	<polygon class="st0" points="25,24.4 25,5.6 38.8,5.6 38.8,7.1 28.3,6.9 28.3,13.8 36.5,13.8 36.5,14.9 28.3,14.9 28.3,23 
		39.2,22.9 39.2,24.4 25,24.4 	"/>
	<polygon class="st0" points="45.1,5.6 54.6,21.7 63,5.6 66.5,5.6 66.5,24.4 63,24.4 63,8.4 54.7,24.4 52.3,24.4 43.4,9.6 
		43.4,24.4 42,24.4 42,5.6 45.1,5.6 	"/>
</g>
<path class="st0" d="M3.9,2.6h3.5c2.4,0,11.3-0.1,11.3,5.3c0,4.9-6.2,5.8-8.9,5.8H3.9V2.6z M23.5,24.4L13,14.7c0.4,0,0.8,0,1.2-0.1
	c2.4-0.3,7.2-1.6,7.5-6.6c0.1-6.5-10.3-6.5-12.5-6.5H0v22.9h3.8v-9.5h5l10.6,9.5H23.5z"/>
<g>
	<path class="st0" d="M143.4,23.6c-5.5,0-7.9-3.8-7.9-8.5s3.2-8.5,7.9-8.5s8,3.8,8,8.5S148.9,23.6,143.4,23.6L143.4,23.6z
		 M143.4,5.3c-6.6,0-11,4.4-11,9.7s3.4,9.7,11,9.7s11-4.4,11-9.7S150,5.3,143.4,5.3z"/>
	<polygon class="st0" points="172.5,5.6 172.5,20.1 159,5.6 156.5,5.6 156.5,24.4 158,24.4 158,9.4 172,24.4 173.9,24.4 173.9,5.6 
		172.5,5.6 	"/>
	<polygon class="st0" points="133.9,5.6 115.3,5.6 115.3,7.2 122.9,7 122.9,24.4 126.3,24.4 126.3,7 133.9,7.2 133.9,5.6 	"/>
	<path class="st0" d="M113.2,5.7c-1.5-0.3-3-0.4-4.5-0.4c-7.2,0-11.5,4.4-11.5,9.8s3.4,9.7,11,9.7c2.8,0.1,5.6-0.7,7.9-2.5v-6.9
		h-4.8l1.5,1.4v5.6c-1.4,0.9-3,1.3-4.7,1.3c-5.5,0-8-3.8-8-8.5s3.3-8.6,8.5-8.6c1.5,0,3.1,0.2,4.5,0.7V5.7z"/>
	<g>
		<path class="st0" d="M8.1,32.8H14V34H9.5v2h4v1.2h-4v2.1H14v1.2H8.1V32.8z"/>
		<path class="st0" d="M17.7,39.5l0.8-1c0.7,0.6,1.6,1,2.5,1c0.9,0,1.4-0.4,1.4-1l0,0c0-0.6-0.3-0.9-1.8-1.2
			c-1.7-0.4-2.6-0.9-2.6-2.4l0,0c0.1-1.3,1.2-2.4,2.5-2.3c0.1,0,0.1,0,0.2,0c1,0,2.1,0.3,2.9,1l-0.7,1c-0.6-0.5-1.4-0.8-2.1-0.8
			c-0.8,0-1.3,0.4-1.3,0.9l0,0c0,0.6,0.4,0.9,1.9,1.2s2.5,1,2.5,2.3l0,0c0,1.5-1.2,2.4-2.8,2.4C19.7,40.7,18.6,40.3,17.7,39.5z"/>
		<path class="st0" d="M29.7,34.1h-2.5v-1.3h6.4v1.3H31v6.6h-1.4V34.1z"/>
		<path class="st0" d="M33.7,39.1h1.5v1.5h-1.5V39.1z"/>
		<path class="st0" d="M44.8,32.8h1.3l4.2,5.5v-5.5h1.4v7.9h-1.2l-4.3-5.6v5.6h-1.4V32.8z"/>
		<path class="st0" d="M56.2,32.8H62V34h-4.4v2h4v1.2h-4v2.1h4.5v1.2h-5.9V32.8z"/>
		<path class="st0" d="M65.7,32.8h1.5l1.9,5.8l2-5.9h1.2l1.9,5.9l1.9-5.8h1.4l-2.7,7.9h-1.2l-1.9-5.7l-1.9,5.7h-1.2L65.7,32.8z"/>
		<path class="st0" d="M89.6,37.6l-3.1-4.8h1.7l2.2,3.5l2.2-3.5h1.6L91,37.5v3.1h-1.4V37.6z"/>
		<path class="st0" d="M96.8,36.8L96.8,36.8c0-2.3,1.8-4.1,4.1-4.1c2.3,0,4.1,1.8,4.1,4.1l0,0c0,2.3-1.8,4.1-4.1,4.1
			C98.6,40.9,96.8,39,96.8,36.8z M103.6,36.8L103.6,36.8c0.1-1.5-1.1-2.7-2.6-2.8c0,0-0.1,0-0.1,0c-1.5,0-2.7,1.2-2.7,2.7
			c0,0,0,0.1,0,0.1l0,0c0,1.5,1.1,2.7,2.6,2.8c0,0,0.1,0,0.1,0c1.5,0,2.7-1.2,2.7-2.6C103.6,36.8,103.6,36.8,103.6,36.8z"/>
		<path class="st0" d="M109.2,32.8h3.5c0.8,0,1.7,0.2,2.3,0.8c0.4,0.5,0.7,1.1,0.7,1.7l0,0c0,1.1-0.8,2.1-1.9,2.4l2.1,3h-1.6
			l-1.9-2.8h-1.7v2.8h-1.4V32.8z M112.6,36.7c1,0,1.6-0.5,1.6-1.3l0,0c0-0.8-0.6-1.3-1.6-1.3h-2v2.7L112.6,36.7z"/>
		<path class="st0" d="M119.9,32.8h1.4v4l3.8-4h1.7l-3.3,3.4l3.4,4.5h-1.7l-2.7-3.5l-1.2,1.3v2.3h-1.4V32.8z"/>
		<path class="st0" d="M137.4,34.1l-1.4,0.4l-0.3-1.1l2.1-0.7h1v7.9h-1.4V34.1z"/>
		<path class="st0" d="M147.7,37.1c-0.5,0.6-1.1,0.9-1.9,0.8c-1.4,0.2-2.6-0.8-2.8-2.2c0-0.1,0-0.2,0-0.3l0,0c0-1.5,1.2-2.8,2.7-2.8
			c0.1,0,0.2,0,0.2,0c0.8,0,1.6,0.3,2.2,0.8c0.7,0.8,1.1,1.9,1,3l0,0c0,2.5-1.3,4.3-3.4,4.3c-0.9,0-1.8-0.3-2.5-1l0.8-1.1
			c0.5,0.5,1.1,0.7,1.8,0.8C147.2,39.5,147.7,38.1,147.7,37.1z M147.7,35.3L147.7,35.3c0-0.8-0.7-1.5-1.5-1.5c0,0-0.1,0-0.1,0
			c-0.8-0.1-1.5,0.5-1.6,1.3c0,0,0,0.1,0,0.1l0,0c0,0.8,0.6,1.4,1.4,1.4c0,0,0.1,0,0.1,0c0.8,0.1,1.5-0.5,1.6-1.3
			C147.7,35.4,147.7,35.4,147.7,35.3z"/>
		<path class="st0" d="M152.7,39.4l1-0.9c0.5,0.6,1.3,1,2.1,1c0.7,0.1,1.3-0.4,1.4-1.1c0,0,0-0.1,0-0.1l0,0c0-0.8-0.7-1.2-1.8-1.2
			h-0.6l-0.2-0.9l2.1-2.3h-3.4v-1.2h5.2v1l-2.2,2.3c1.2,0.1,2.3,0.8,2.3,2.2l0,0c0,1.4-1.2,2.5-2.5,2.5c-0.1,0-0.1,0-0.2,0
			C154.6,40.8,153.4,40.3,152.7,39.4z"/>
		<path class="st0" d="M166.1,34h-4v-1.2h5.5v1l-3.6,6.8h-1.6L166.1,34z"/>
	</g>
</g>
</svg>
