<svg class="big-logo" version="1.1" id="Layer_1" xmlns="http://www.w3.org/2000/svg" xmlns:xlink="http://www.w3.org/1999/xlink" x="0px" y="0px" viewBox="0 0 571.5 83.5" style="enable-background:new 0 0 571.5 83.5;" xml:space="preserve">
 <style type="text/css">
 .st1{fill:#FFFFFF;}
 </style>
 <g>
 <g>
 <path class="st0" d="M283.5,12.6h8v48.2c0,1.8,0.5,3.5,2.7,3.5c0.9,0,2.2-0.2,3.2-0.5l1.5,7.2c-2.2,0.7-4.1,1-6.4,1c-5.8,0-9.1-3.3-9.1-10.9V21.1V12.6z"></path>
 <path class="st0" d="M304.2,12.6h8v48.2c0,1.8,0.5,3.5,2.7,3.5c0.8,0,2.1-0.2,3.2-0.5l1.5,7.2c-2.2,0.7-4.2,1-6.4,1c-5.7,0-9.1-3.3-9.1-10.9V21.1V12.6z"></path>
 <path class="st0" d="M170,61.1c3.6,2.1,6.3,3.6,11.8,3.6c4.3,0,8.7-0.9,8.7-4.7c0-0.7-0.2-1.4-0.6-1.9c-3.2-3.9-17.2-1.2-21.6-8.9c-0.9-1.5-1.4-3.4-1.4-5.8c0-8.4,6.6-12.4,14.9-12.4c5.5,0,9.3,1.3,14.8,3.8l-2.7,7c-5.2-2.1-7.2-2.9-11.8-2.9c-4.8,0-6.8,1.6-6.8,4.2c0,0.7,0.2,1.3,0.5,1.8c2.5,4.4,15.4,2,20.8,7.7c1.5,1.6,2.4,3.8,2.4,7c0,9.7-8,13.1-16.9,13.1c-6.5,0-10.9-1.7-15.3-4.4L170,61.1z"></path>
 <path class="st0" d="M126,55.2V39.5v-7.4h8v22.8c0,7,3.2,9.9,9.8,9.9c6.6,0,9.8-2.7,9.8-9.7V32.1h8v23.2c0,12.4-7.7,17.3-18,17.3C133.3,72.5,126,67.5,126,55.2"></path>
 <path class="st0" d="M121.5,63.6c-1.2,0.3-2.6,0.5-3.5,0.5c-2.2,0-3.9-0.8-5.4-2.1c-3.1-2.7-9.1-15.4-9.1-15.4c7.9-1.7,13.8-7.5,13.8-16.4c0-8.5-6.2-15.1-12.8-17.1c-2.7-0.8-6.3-1-8.8-1H78.2v59.6h8.2V48.3h8.6c0,0,8.2,16.6,12.5,20.1c2.5,2.1,5.5,3.6,9.3,3.6c2.4,0,4.9-0.4,6.4-1.1L121.5,63.6z M94.2,40.5h-7.9v-8.3V20.1h12c4.1,0,6.4,1.7,7.5,3c1.7,1.9,2.8,4.4,2.8,7.2c0,4.4-2.5,8.3-6.5,9.5C100.2,40.4,97.5,40.5,94.2,40.5"></path>
 <path class="st0" d="M206.7,61.1c3.6,2.1,6.3,3.6,11.8,3.6c4.3,0,8.7-0.9,8.7-4.7c0-0.7-0.2-1.4-0.6-1.9c-3.2-3.9-17.2-1.2-21.6-8.9c-0.9-1.5-1.4-3.4-1.4-5.8c0-8.4,6.6-12.4,14.9-12.4c5.5,0,9.3,1.3,14.8,3.8l-2.7,7c-5.2-2.1-7.2-2.9-11.8-2.9c-4.8,0-6.8,1.6-6.8,4.2c0,0.7,0.1,1.3,0.5,1.8c2.5,4.4,15.4,2,20.8,7.7c1.5,1.6,2.4,3.8,2.4,7c0,9.7-8,13.1-16.9,13.1c-6.5,0-10.9-1.7-15.3-4.4L206.7,61.1z"></path>
 <path class="st0" d="M239.8,52.6c0-13.5,9-21.6,21.5-21.6c8.5,0,15.9,3.8,15.9,12c0,7.9-6.9,12.6-20,12.6c-2.8,0-5.8-0.1-8.5-0.4c0.4,6.2,5.2,9.5,12.5,9.5c5.1,0,8.6-1.1,12.7-3l2.5,7c-4.5,2.4-9.5,3.8-16.2,3.8C247.7,72.5,239.8,64.7,239.8,52.6 M256.6,48.1c9.5,0,12.1-2.8,12.1-5.3c0-2.6-3-4-7.4-4c-6.4,0-11.2,3-12.5,8.9C251.4,48,254.2,48.1,256.6,48.1"></path>
 <polygon class="st0" points="347.7,12.5 355.9,12.5 355.9,37.3 383.8,37.3 383.8,12.5 391.9,12.5 391.9,71.7 383.8,71.7 383.8,45 355.9,45 355.9,71.7 347.7,71.7"></polygon>
 <path class="st0" d="M397.4,51.8c0-11.5,8.3-20.8,20.9-20.8c12.4,0,20.7,9.3,20.7,20.8c0,11.5-8.2,20.7-20.9,20.7C405.7,72.5,397.4,63.3,397.4,51.8 M430.5,51.8c0-7.4-4.9-13-12.3-13c-7.5,0-12.5,5.6-12.5,13c0,7.3,4.9,12.9,12.3,12.9C425.6,64.7,430.5,59.1,430.5,51.8"></path>
 <path class="st0" d="M537.7,61.1c3.6,2.1,6.3,3.6,11.8,3.6c4.3,0,8.7-0.9,8.7-4.7c0-0.7-0.2-1.4-0.6-1.9c-3.2-3.9-17.2-1.2-21.6-8.9c-0.8-1.5-1.4-3.4-1.4-5.8c0-8.4,6.6-12.4,14.9-12.4c5.5,0,9.3,1.3,14.8,3.8l-2.7,7c-5.2-2.1-7.2-2.9-11.8-2.9c-4.8,0-6.9,1.6-6.9,4.2c0,0.7,0.2,1.3,0.5,1.8c2.5,4.4,15.4,2,20.8,7.7c1.5,1.6,2.4,3.8,2.4,7c0,9.7-8,13.1-16.9,13.1c-6.5,0-10.9-1.7-15.3-4.4L537.7,61.1z"></path>
 <path class="st0" d="M464.5,31c-5.1,0-9.1,1.6-12.6,4.1V12.7h-8v52.9c0,0,8,6.3,20.3,6.3c12.6,0,20.5-8.5,20.5-20C484.8,40.2,476.9,31,464.5,31 M464.3,64c-7.4,0-11.9-3.2-11.9-3.2v-9c0-7.4,4.6-13,12.1-13c7.4,0,12,5.6,12,13C476.4,59.1,471.8,64,464.3,64"></path>
 <path class="st0" d="M510.2,31c-5.1,0-9.1,1.6-12.6,4.1V12.7h-7.9v52.9c0,0,7.9,6.3,20.3,6.3c12.6,0,20.5-8.5,20.5-20C530.6,40.2,522.6,31,510.2,31 M510.1,64c-8,0-12-3.2-12-3.2v-9c0-7.4,4.6-13,12.1-13c7.4,0,12,5.6,12,13C522.2,59.1,517.6,64,510.1,64"></path>
 <path class="st0" d="M56.2,41.9c0,21.1-11.6,38.2-26,38.2c-14.4,0-26-17.1-26-38.2c0-21.1,11.6-38.2,26-38.2C44.6,3.7,56.2,20.8,56.2,41.9"></path>
 <path class="st1" d="M19.4,20c1.4,0.2,2.9-0.1,4.2-0.4c1-0.2,2.2-0.7,3.3-1c1.1,0.9,3.5,3.3,4.7,4.3c0.1,0.1,0.4,0.4,0.7,0.7c-0.3,0.1-0.6,0.2-0.9,0.2h0c-0.7,0.2-1.2,0.4-1.8,0.6c0.4,0.2,0.8,0.5,0.8,0.5c0.8-0.2,1.6-0.5,2.6-0.7c0.2,0.2,0.4,0.4,0.6,0.5c0,0,0,0,0,0c0.1,0.1,0.2,0.2,0.3,0.2h0c1.6,1.3,3.6,2.1,5.9,2.5c2,0.3,4.1-0.1,6-0.8c1.2-0.4,2.1-1.2,1.7-2.6c-0.4-1.5-2.7-1.8-3.9-1.9c-2.4-0.3-4.8,0-7.1,0.4c-0.3,0-0.5,0.1-0.8,0.1c-0.3-0.3-0.6-0.5-0.9-0.8c-1.3-1.1-4.1-3.5-5.4-4.5c0.4-0.2,0.9-0.4,1.3-0.5c0.1,0,0.2-0.1,0.3-0.1c0.3-0.1,0.7-0.2,1-0.3c1.2,1,3,2.2,5.5,2.7c1.5,0.3,3-0.1,4.5-0.7c0.9-0.4,1.6-1.1,1.3-2.4c-0.3-1.3-2-1.6-2.9-1.7c-1.8-0.2-3.6,0-5.3,0.4c-0.2,0-0.3,0.1-0.5,0.1h0c-0.3,0.1-0.5,0.1-0.8,0.2c-0.2-0.2-0.3-0.3-0.3-0.3c-2.7-2.2-3.1-3.8-2.8-5.3c0.1-0.4-1,0.9-1.1,2.2c-0.1,1.2,0.2,2.6,1.7,4c0,0,0.1,0.1,0.2,0.1c-0.2,0.1-0.4,0.2-0.7,0.2h0c-0.1,0-0.2,0.1-0.2,0.1c-0.5,0.2-1.1,0.5-1.7,0.7c-2.2-1.6-4.4-2.6-6.9-2.5c-1.2,0.1-6.4,1.2-4.6,4.1C17.5,19.4,18.7,19.9,19.4,20 M40.3,23.5c1.3,0.1,2.7,0,3.5,1.2c0.5,0.6,0.4,1.4-0.1,2c-0.1,0-0.2,0-0.3,0c-0.8-0.1-1.5-0.2-2.3-0.4c-1.8-0.5-2.7-1.1-4.3-2.1h0c-0.2-0.1-0.4-0.3-0.6-0.5C37.8,23.5,39,23.4,40.3,23.5 M35.3,15.7c0.9-0.1,1.7-0.1,2.6-0.1c1,0.1,2,0,2.6,1.1c0.3,0.6,0.3,1.3,0,1.8c-0.1,0-0.1,0-0.2,0c-0.6-0.1-1.1-0.2-1.7-0.4c-1.3-0.4-2.5-1-3.6-1.9c-0.1-0.1-0.3-0.3-0.5-0.4C34.7,15.8,35,15.8,35.3,15.7 M19.7,15.5c0.3,0,0.5,0,0.8,0.1c0.9,0.1,1.9,0.4,2.8,0.8c1.1,0.4,1.9,1.1,3,1.8c-1,0.3-2.1,0.7-3.2,0.8c-1.1,0.1-3.1,0.1-3.7-1.4C19.1,16.8,19.3,16,19.7,15.5"></path>
 <path class="st1" d="M48.6,43.5c-1.1-0.9-2.6-1.7-4.5-1.9l-0.5,1.4c2.9,0.5,4.2,3,4.4,4.8c0.2,1.8-0.5,3.9-2.4,4.3c-2.6,0.5-4.3-1.5-4.5-3.7c-0.2-1.6,0.6-3.9,1.1-5.4l0.7-1.9c0.6-1.6,1.2-3.2,1.9-4.9c0.2-0.5,0.7-1.7,0.7-1.8c0.4-1.1,1.1-2.5,2-2.5c0.8,0,1.6,0.5,1.6,0.5l0.9-1.5c0,0-0.9-0.5-2-0.6c-1.8-0.1-3.3,0.6-4.4,1.9c-0.4,0.4-0.6,0.8-0.9,1.3c-0.8,1.5-1.4,3.3-2,4.9c-0.3,0.8-0.6,1.6-1,2.7h-4.2c0.4-2.8,0.8-10-5.7-15.3c-2.5-2-5.5-3.8-9.9-3.8c-0.1,0-0.2,0-0.3,0c-1.4,0.1-2.7,0.3-4,0.8c-0.9,0.4-1.9,0.8-2.3,1.8c-0.5,1.3,1.4,2.2,2.3,2.5c2.1,0.7,4.4,0.5,6.6,0.3c1.1-0.1,1.8-0.2,2.7-0.5c-0.3-0.2-0.8-0.5-0.8-0.5c-1.3,0.2-2.6,0.2-4.1,0c-1-0.1-2.1-0.4-2.9-1.1c-0.3-0.2-0.4-0.5-0.5-0.9c-0.1-0.3,0-0.6,0.2-0.9c0.1-0.1,0.2-0.2,0.3-0.3c0,0,0,0,0,0c0,0,0.1,0,0.1,0h0c3,0.1,5.8,1.4,8.3,3l0.7,0.5c0,0,0.1,0.1,0.1,0.1c2.5,1.7,4.2,4,5.3,6.8c1.2,3,2.8,10.4-4,15.5c0.2,0.3,0.8,1.1,1.2,1.5c2.4-1.2,4.9-3.8,6.3-7.7h3.8c-1,2.6-1.6,5-0.6,7.2c2,4.7,9.3,4.1,11.3,0.1C50.9,48.2,50.4,45,48.6,43.5"></path>
 <path class="st1" d="M41.5,63.6c-1.4-0.2-2.9,0.1-4.2,0.4c-1,0.2-2.2,0.7-3.3,1c-1.1-0.9-3.5-3.3-4.7-4.3c-0.1-0.1-0.4-0.4-0.7-0.7c0.3-0.1,0.6-0.2,0.9-0.2l0,0c0.7-0.2,1.1-0.3,1.8-0.5c-0.5-0.3-0.8-0.6-0.8-0.6c-0.7,0.2-1.5,0.5-2.5,0.7c-0.2-0.2-0.4-0.4-0.6-0.5c0,0,0,0,0,0c-0.1-0.1-0.2-0.2-0.3-0.2h0c-1.6-1.3-3.6-2.1-5.9-2.5c-2-0.3-4.1,0.1-6,0.8c-1.2,0.4-2.1,1.2-1.7,2.6c0.4,1.5,2.7,1.8,3.9,1.9c2.4,0.3,4.8,0,7.1-0.4c0.3,0,0.5-0.1,0.8-0.1c0.3,0.3,0.6,0.5,0.9,0.8c1.3,1.1,4.1,3.5,5.4,4.5c-0.4,0.2-0.9,0.4-1.3,0.5c-0.1,0-0.2,0.1-0.3,0.1c-0.3,0.1-0.7,0.2-1,0.3c-1.2-1-3.1-2.2-5.5-2.7c-1.5-0.3-3,0.1-4.5,0.7c-0.9,0.4-1.6,1.1-1.3,2.4c0.3,1.4,2,1.6,2.9,1.7c1.8,0.2,3.6,0,5.3-0.4c0.2,0,0.3-0.1,0.5-0.1c0.3,0,0.5-0.1,0.8-0.2c0.2,0.2,0.3,0.3,0.3,0.3c2.7,2.2,3.1,3.8,2.8,5.3c-0.1,0.4,1.1-0.9,1.1-2.2c0.1-1.2-0.2-2.6-1.7-4c0,0-0.1-0.1-0.1-0.1c0.2-0.1,0.4-0.2,0.7-0.3l0,0c0.1,0,0.2-0.1,0.2-0.1c0.5-0.2,1.1-0.5,1.7-0.7c2.2,1.6,4.4,2.6,6.9,2.5c1.2-0.1,6.4-1.2,4.6-4.1C43.4,64.2,42.1,63.7,41.5,63.6 M20.5,60.1c-1.3-0.1-2.7,0-3.5-1.2c-0.5-0.6-0.4-1.4,0.1-2c0.1,0,0.2,0,0.3,0c0.8,0.1,1.5,0.2,2.3,0.4c1.8,0.5,2.7,1.1,4.3,2.1l0,0c0.2,0.2,0.4,0.3,0.6,0.5C23.1,60.1,21.8,60.2,20.5,60.1 M25.6,67.9C24.7,68,23.9,68,23,67.9c-1-0.1-2,0-2.6-1.1c-0.3-0.6-0.3-1.3,0-1.8c0.1,0,0.1,0,0.2,0c0.6,0.1,1.1,0.2,1.7,0.4c1.3,0.4,2.5,1,3.6,1.9c0.1,0.1,0.3,0.2,0.5,0.4C26.2,67.8,25.9,67.8,25.6,67.9 M41.2,68.1c-0.3,0-0.5,0-0.8-0.1c-0.9-0.1-1.9-0.4-2.8-0.8c-1.1-0.4-1.9-1.1-3-1.8c1-0.3,2.1-0.7,3.2-0.8c1.1-0.1,3.1-0.1,3.7,1.4C41.7,66.8,41.6,67.6,41.2,68.1"></path>
 <path class="st1" d="M47.4,15.8C42.8,9,36.7,5.2,30.2,5.2c-6.4,0-12.5,3.7-17.1,10.5c-4.7,7-7.3,16.2-7.3,26.2c0,9.9,2.6,19.2,7.3,26.2c4.6,6.8,10.7,10.5,17.1,10.5c6.4,0,12.5-3.7,17.1-10.5c4.7-7,7.3-16.3,7.3-26.2C54.7,32,52.1,22.7,47.4,15.8 M46.6,67.6c-4.4,6.5-10.3,10.1-16.4,10.1c-6.1,0-11.9-3.6-16.4-10.1c-4.6-6.8-7.2-15.9-7.2-25.6c0-9.7,2.6-18.8,7.2-25.6C18.3,9.8,24.1,6.2,30.2,6.2c6.1,0,11.9,3.6,16.4,10.1c4.6,6.8,7.2,15.9,7.2,25.6C53.8,51.6,51.3,60.7,46.6,67.6"></path>
 <path class="st1" d="M45,55.7c-1.8-0.2-3.8,0.1-5.6,0.4c-1.3,0.2-2.1,0.4-3.3,0.7c0.3,0.3,0.8,0.5,0.8,0.5c1.1-0.3,1.9-0.4,3.2-0.5c1.5-0.1,4.1-0.1,4.9,1.5c0.3,0.7,0.1,1.5-0.4,2c-0.4,0-0.7,0-1.1-0.1c-1.2-0.1-2.5-0.4-3.7-0.8c-1.4-0.5-2.9-1.1-4.2-1.9h0l-0.4-0.2c-2.8-1.7-5.3-3.9-7.4-6.3c-1.7-2-2.9-4.3-4-6.7c2.4-0.7,4.6-2.2,5.5-4.5c1.4-4.3-2.2-8-6.2-9c-4.4-1.1-9.6,0.2-11.4,4.4c-1.1,2.6-0.2,5.6,3,7.8l1.1-2.6c-1.8-1.5-2.7-3.6-1.9-5.6c1.3-3.3,5.3-3.2,8-2.1c3.1,1.4,5,4.6,4.1,7.7c-0.4,1.1-1.3,2.3-2.5,2.7c-1.1,0.4-2.3,0.2-3.5-0.2c1.1-2.8,1.9-5,3-7.8c-0.7-0.5-1.8-1.1-2.6-1.3c0,0-2.1,5.5-3.2,8.4c-0.7,1.8-1.4,3.6-2.1,5.4c-0.2,0.5-0.4,1-0.5,1.4c-0.4,1.1-1.1,2.5-2,2.5c-0.8,0-1.6-0.5-1.6-0.5l-0.9,1.5c0,0,0.9,0.5,2,0.6c2.8,0.1,4.6-1.4,5.9-4.5c0.5-1.3,1-2.6,1.5-3.9c0.3,0,0.6,0.1,1,0.1c1.5,3.4,3.3,6.5,6,9.1c1.6,1.6,3.5,3.1,5.6,4.4l0.4,0.3h0c3,1.7,6.3,2.8,9.5,2.7c1.6-0.1,8.5-1.3,6.1-4.3C47.5,56.4,45.9,55.8,45,55.7"></path>
 </g>
 </g></svg>