<?xml version="1.0" standalone="no"?>
<!DOCTYPE svg PUBLIC "-//W3C//DTD SVG 20010904//EN"
 "http://www.w3.org/TR/2001/REC-SVG-20010904/DTD/svg10.dtd">
<svg version="1.0" xmlns="http://www.w3.org/2000/svg"
 width="257.000000pt" height="257.000000pt" viewBox="0 0 257.000000 257.000000"
 preserveAspectRatio="xMidYMid meet">
<metadata>
Created by potrace 1.11, written by Peter Selinger 2001-2013
</metadata>
<g transform="translate(0.000000,257.000000) scale(0.100000,-0.100000)"
fill="#000000" stroke="none">
<path d="M1152 1298 c-84 -376 -152 -686 -152 -690 0 -5 61 -8 135 -8 74 0
135 1 135 3 0 1 68 306 150 677 83 371 150 680 150 687 0 10 -32 13 -133 13
l-134 0 -151 -682z"/>
<path d="M570 1536 c-201 -84 -371 -155 -377 -159 -9 -6 -13 -43 -13 -126 l0
-118 292 -121 c161 -67 293 -120 295 -118 8 8 55 238 50 249 -2 7 -62 34 -132
61 l-128 50 156 60 c85 34 158 63 161 66 8 8 67 282 64 295 -2 7 -142 -46
-368 -139z"/>
<path d="M1765 1565 c-15 -70 -23 -130 -19 -135 5 -4 64 -29 132 -55 68 -26
122 -49 120 -51 -2 -1 -73 -30 -158 -62 l-155 -59 -32 -144 c-18 -79 -32 -149
-30 -156 1 -6 156 53 380 145 l377 156 0 122 0 122 -72 30 c-188 78 -494 205
-504 209 -7 2 -21 -45 -39 -122z"/>
</g>
</svg>
